<svg xmlns="http://www.w3.org/2000/svg" width="292" height="70" viewBox="0,0,292,70">
  <title>Total Validator Header</title>
  <metadata>Author: Total Validator</metadata>
  <defs>
    <clipPath id="circleClip">
      <circle cx="26" cy="34.5" r="26" />
    </clipPath>
  </defs>
  <rect width="100%" height="100%" fill="#666699"/>
  <circle cx="26" cy="34.5" r="25" fill="white" />
  <!-- <path fill="#666699" d="M9.5 25 L30.5 25 L30.5 30.5 L23 30.5 L23 47 L17 47 L17 30.5 L9.5 30.5 z" /> -->
  <path fill="#666699" d="M7.11 25 L29.45 25 L29.45 30.69 L21.13 30.69 L21.13 47.34 L15.44 47.34 L15.44 30.69 L7.11 30.69 z" />
  <!-- <path fill="#666699" d="M25 33.5 L31.5 47 L37 47 L49.5 18.5 L45 16.5 L34 40 L30.5 33.5 z" clip-path="url(#circleClip)" /> -->
  <path fill="#666699" d="M23.16 33.33 L29.66 47.34 L35.34 47.34 L48.95 18.3 L43.67 16.06 L32.5 40.03 L29.45 33.33 z" clip-path="url(#circleClip)" /> 
  <text fill="white" x="66" y="47" font-family="Arial, Helvetica, sans-serif" font-size="32" font-weight="bold">Total Validator</text>
</svg>
